<mxfile host="app.diagrams.net" modified="2023-12-18T20:48:08.750Z" agent="Mozilla/5.0 (Windows NT 10.0; Win64; x64; rv:120.0) Gecko/20100101 Firefox/120.0" etag="nkGx-P3c-Af6XsUf1sBP" version="22.1.11" type="github">
  <diagram name="Page-1" id="zepi8L1Fa5KOCbv11WCR">
    <mxGraphModel dx="698" dy="648" grid="1" gridSize="10" guides="1" tooltips="1" connect="1" arrows="1" fold="1" page="1" pageScale="1" pageWidth="827" pageHeight="1169" math="0" shadow="0">
      <root>
        <mxCell id="0" />
        <mxCell id="1" parent="0" />
        <mxCell id="6d0xhP9Bua8mKnlUmiVI-2" value="" style="ellipse;whiteSpace=wrap;html=1;aspect=fixed;" vertex="1" parent="1">
          <mxGeometry x="300" y="160" width="100" height="100" as="geometry" />
        </mxCell>
        <mxCell id="6d0xhP9Bua8mKnlUmiVI-1" value="Items" style="ellipse;whiteSpace=wrap;html=1;" vertex="1" parent="1">
          <mxGeometry x="310" y="170" width="80" height="80" as="geometry" />
        </mxCell>
        <mxCell id="6d0xhP9Bua8mKnlUmiVI-4" value="&lt;div&gt;Office essentials&lt;/div&gt;&lt;div&gt;bundle&lt;br&gt;&lt;/div&gt;" style="text;html=1;strokeColor=none;fillColor=none;align=center;verticalAlign=middle;whiteSpace=wrap;rounded=0;" vertex="1" parent="1">
          <mxGeometry x="320" y="120" width="60" height="30" as="geometry" />
        </mxCell>
        <mxCell id="6d0xhP9Bua8mKnlUmiVI-5" value="Cheap bundles" style="ellipse;whiteSpace=wrap;html=1;aspect=fixed;" vertex="1" parent="1">
          <mxGeometry x="310" y="360" width="80" height="80" as="geometry" />
        </mxCell>
        <mxCell id="6d0xhP9Bua8mKnlUmiVI-8" value="" style="endArrow=classic;html=1;rounded=0;entryX=0.5;entryY=1;entryDx=0;entryDy=0;exitX=0.5;exitY=0;exitDx=0;exitDy=0;" edge="1" parent="1" source="6d0xhP9Bua8mKnlUmiVI-5" target="6d0xhP9Bua8mKnlUmiVI-2">
          <mxGeometry width="50" height="50" relative="1" as="geometry">
            <mxPoint x="350" y="370" as="sourcePoint" />
            <mxPoint x="390" y="320" as="targetPoint" />
          </mxGeometry>
        </mxCell>
        <mxCell id="6d0xhP9Bua8mKnlUmiVI-9" value="Price" style="ellipse;whiteSpace=wrap;html=1;aspect=fixed;" vertex="1" parent="1">
          <mxGeometry x="520" y="170" width="80" height="80" as="geometry" />
        </mxCell>
        <mxCell id="6d0xhP9Bua8mKnlUmiVI-11" value="" style="shape=process;whiteSpace=wrap;html=1;backgroundOutline=1;size=0.5;" vertex="1" parent="1">
          <mxGeometry x="430" y="200" width="60" height="20" as="geometry" />
        </mxCell>
        <mxCell id="6d0xhP9Bua8mKnlUmiVI-12" value="" style="endArrow=none;html=1;rounded=0;exitX=1;exitY=0.5;exitDx=0;exitDy=0;entryX=0;entryY=0.5;entryDx=0;entryDy=0;startArrow=oval;startFill=1;" edge="1" parent="1" source="6d0xhP9Bua8mKnlUmiVI-1" target="6d0xhP9Bua8mKnlUmiVI-11">
          <mxGeometry width="50" height="50" relative="1" as="geometry">
            <mxPoint x="480" y="370" as="sourcePoint" />
            <mxPoint x="530" y="320" as="targetPoint" />
          </mxGeometry>
        </mxCell>
        <mxCell id="6d0xhP9Bua8mKnlUmiVI-13" value="" style="endArrow=none;html=1;rounded=0;entryX=0;entryY=0.5;entryDx=0;entryDy=0;exitX=1;exitY=0.5;exitDx=0;exitDy=0;" edge="1" parent="1" source="6d0xhP9Bua8mKnlUmiVI-11" target="6d0xhP9Bua8mKnlUmiVI-9">
          <mxGeometry width="50" height="50" relative="1" as="geometry">
            <mxPoint x="500" y="230" as="sourcePoint" />
            <mxPoint x="440" y="220" as="targetPoint" />
          </mxGeometry>
        </mxCell>
        <mxCell id="6d0xhP9Bua8mKnlUmiVI-14" value="Pencils" style="ellipse;whiteSpace=wrap;html=1;aspect=fixed;" vertex="1" parent="1">
          <mxGeometry x="120" y="120" width="80" height="80" as="geometry" />
        </mxCell>
        <mxCell id="6d0xhP9Bua8mKnlUmiVI-15" value="Paper" style="ellipse;whiteSpace=wrap;html=1;aspect=fixed;" vertex="1" parent="1">
          <mxGeometry x="120" y="240" width="80" height="80" as="geometry" />
        </mxCell>
        <mxCell id="6d0xhP9Bua8mKnlUmiVI-16" value="" style="endArrow=classic;html=1;rounded=0;exitX=0.975;exitY=0.65;exitDx=0;exitDy=0;exitPerimeter=0;entryX=0.038;entryY=0.425;entryDx=0;entryDy=0;entryPerimeter=0;dashed=1;" edge="1" parent="1" source="6d0xhP9Bua8mKnlUmiVI-14" target="6d0xhP9Bua8mKnlUmiVI-1">
          <mxGeometry width="50" height="50" relative="1" as="geometry">
            <mxPoint x="290" y="310" as="sourcePoint" />
            <mxPoint x="340" y="260" as="targetPoint" />
          </mxGeometry>
        </mxCell>
        <mxCell id="6d0xhP9Bua8mKnlUmiVI-17" value="" style="endArrow=classic;html=1;rounded=0;exitX=1.013;exitY=0.363;exitDx=0;exitDy=0;exitPerimeter=0;entryX=0.013;entryY=0.638;entryDx=0;entryDy=0;entryPerimeter=0;dashed=1;" edge="1" parent="1" source="6d0xhP9Bua8mKnlUmiVI-15" target="6d0xhP9Bua8mKnlUmiVI-1">
          <mxGeometry width="50" height="50" relative="1" as="geometry">
            <mxPoint x="290" y="310" as="sourcePoint" />
            <mxPoint x="340" y="260" as="targetPoint" />
          </mxGeometry>
        </mxCell>
        <mxCell id="6d0xhP9Bua8mKnlUmiVI-18" value="has" style="text;html=1;strokeColor=none;fillColor=none;align=center;verticalAlign=middle;whiteSpace=wrap;rounded=0;" vertex="1" parent="1">
          <mxGeometry x="414" y="220" width="60" height="30" as="geometry" />
        </mxCell>
        <mxCell id="6d0xhP9Bua8mKnlUmiVI-19" value="is-of" style="text;html=1;strokeColor=none;fillColor=none;align=center;verticalAlign=middle;whiteSpace=wrap;rounded=0;" vertex="1" parent="1">
          <mxGeometry x="450" y="220" width="60" height="30" as="geometry" />
        </mxCell>
        <mxCell id="6d0xhP9Bua8mKnlUmiVI-20" value="" style="endArrow=classic;startArrow=classic;html=1;rounded=0;" edge="1" parent="1">
          <mxGeometry width="50" height="50" relative="1" as="geometry">
            <mxPoint x="430" y="190" as="sourcePoint" />
            <mxPoint x="460" y="190" as="targetPoint" />
          </mxGeometry>
        </mxCell>
      </root>
    </mxGraphModel>
  </diagram>
</mxfile>
